<svg width="1633" height="640" viewBox="0 0 1633 640" fill="none" xmlns="http://www.w3.org/2000/svg">
<g clip-path="url(#clip0)">
<g style="mix-blend-mode:luminosity" opacity="0.5">
<path d="M1023.34 72C1030.98 65.3922 1040.21 60.9089 1050.13 59C1040.2 60.8742 1030.96 65.3617 1023.34 72Z" fill="#F4B3CC"/>
</g>
<g style="mix-blend-mode:luminosity" opacity="0.5">
<path d="M1021.38 73.79C1021.93 73.26 1022.5 72.74 1023.07 72.23C1022.5 72.74 1021.93 73.26 1021.38 73.79Z" fill="#F4B3CC"/>
</g>
<g style="mix-blend-mode:luminosity" opacity="0.5">
<path d="M1050.63 58.91C1051.24 58.79 1051.85 58.69 1052.47 58.6C1051.85 58.69 1051.24 58.8 1050.63 58.91Z" fill="#F4B3CC"/>
</g>
<g style="mix-blend-mode:luminosity" opacity="0.5">
<path d="M1019.46 75.71C1019.94 75.2033 1020.43 74.7033 1020.93 74.21C1020.43 74.7033 1019.94 75.2033 1019.46 75.71Z" fill="#F4B3CC"/>
</g>
<g style="mix-blend-mode:luminosity" opacity="0.5">
<path d="M1015.81 79.9399C1016.21 79.4299 1016.61 78.9399 1017.02 78.4299C1016.6 78.9199 1016.2 79.4299 1015.81 79.9399Z" fill="#F4B3CC"/>
</g>
<g style="mix-blend-mode:luminosity" opacity="0.5">
<path d="M1017.59 77.7599C1018.03 77.2599 1018.47 76.7599 1018.92 76.2799C1018.47 76.7599 1018 77.2599 1017.59 77.7599Z" fill="#F4B3CC"/>
</g>
<g style="mix-blend-mode:luminosity" opacity="0.5">
<path d="M1015.16 80.76L1014.92 81.08L1015.16 80.76Z" fill="#F4B3CC"/>
</g>
<path d="M1109.52 143C1107.78 145.905 1105.65 148.56 1103.19 150.89L1003.7 246V457.05C1003.7 472.184 1009.72 486.698 1020.42 497.398C1031.12 508.099 1045.64 514.11 1060.77 514.11C1075.9 514.11 1090.42 508.098 1101.12 497.398C1111.82 486.697 1117.83 472.183 1117.83 457.05V115.05C1117.84 107.114 1116.2 99.2628 1113 92C1116.47 100.175 1117.97 109.055 1117.36 117.916C1116.76 126.778 1114.07 135.372 1109.52 143Z" fill="#F4B3CC"/>
<g style="mix-blend-mode:luminosity" opacity="0.5">
<path d="M1018.92 76.28C1019.09 76.08 1019.28 75.9 1019.46 75.71C1019.28 75.9 1019.09 76.08 1018.92 76.28Z" fill="#2FAFE5"/>
</g>
<g style="mix-blend-mode:luminosity" opacity="0.5">
<path d="M1015.34 80.5099L1015.16 80.7599C1015.37 80.4799 1015.59 80.2099 1015.81 79.9399C1015.65 80.1299 1015.49 80.3099 1015.34 80.5099Z" fill="#2FAFE5"/>
</g>
<g style="mix-blend-mode:luminosity" opacity="0.5">
<path d="M1060.77 58C1071.84 57.9915 1082.66 61.2011 1091.94 67.2379C1101.21 73.2747 1108.53 81.878 1113 92C1109.14 82.9477 1102.96 75.0754 1095.08 69.18C1089.05 64.6646 1082.17 61.4015 1074.86 59.5828C1067.55 57.7641 1059.94 57.4265 1052.5 58.59C1055.25 58.1839 1058.02 57.9801 1060.8 57.98L1060.77 58Z" fill="#2FAFE5"/>
</g>
<g style="mix-blend-mode:luminosity" opacity="0.5">
<path d="M1017 78.43L1017.57 77.76L1017 78.43Z" fill="#2FAFE5"/>
</g>
<g style="mix-blend-mode:luminosity" opacity="0.5">
<path d="M1050.13 58.9999C1050.29 58.9999 1050.46 58.9399 1050.63 58.9099C1050.46 58.9399 1050.29 58.9999 1050.13 58.9999Z" fill="#2FAFE5"/>
</g>
<path d="M1014.92 81.08C1012.66 84.0885 1010.7 87.3105 1009.07 90.7L882.07 338.7C882.679 337.686 883.488 336.807 884.447 336.116C885.407 335.425 886.497 334.936 887.652 334.68C888.806 334.424 890.001 334.406 891.162 334.626C892.324 334.847 893.429 335.302 894.409 335.963C895.389 336.625 896.225 337.479 896.864 338.474C897.504 339.469 897.934 340.583 898.129 341.75C898.323 342.916 898.278 344.11 897.997 345.258C897.715 346.407 897.202 347.486 896.49 348.43L1003.7 246V115.05C1003.68 102.813 1007.62 90.8985 1014.92 81.08Z" fill="#FFD475"/>
<g style="mix-blend-mode:luminosity" opacity="0.5">
<path d="M1023.07 72.23L1023.34 72L1023.07 72.23Z" fill="#2FAFE5"/>
</g>
<g style="mix-blend-mode:luminosity" opacity="0.5">
<path d="M1020.93 74.2099L1021.38 73.7899L1020.93 74.2099Z" fill="#2FAFE5"/>
</g>
<g style="mix-blend-mode:luminosity" opacity="0.5">
<path d="M1003.7 115.05V246L1103.19 150.93C1105.65 148.6 1107.78 145.945 1109.52 143.04C1114.08 135.407 1116.77 126.806 1117.37 117.937C1117.98 109.067 1116.48 100.181 1113 92C1108.53 81.8827 1101.22 73.2825 1091.95 67.2461C1082.68 61.2097 1071.86 57.9973 1060.8 58C1058.02 58.0001 1055.25 58.204 1052.5 58.61C1051.88 58.7 1051.27 58.8 1050.66 58.92C1050.49 58.92 1050.32 58.97 1050.16 59.01C1040.24 60.9189 1031.01 65.4022 1023.37 72.01L1023.1 72.24C1022.53 72.75 1021.96 73.24 1021.41 73.8L1020.96 74.22C1020.46 74.7133 1019.97 75.2133 1019.49 75.72C1019.31 75.91 1019.12 76.09 1018.95 76.29C1018.5 76.77 1018.06 77.29 1017.62 77.77L1017.05 78.44C1016.64 78.93 1016.24 79.44 1015.84 79.95C1015.62 80.22 1015.4 80.49 1015.19 80.77L1014.95 81.09C1007.64 90.902 1003.69 102.814 1003.7 115.05Z" fill="#F4B3CC"/>
</g>
<path d="M1003.7 115.05V246L1103.19 150.93C1105.65 148.6 1107.78 145.945 1109.52 143.04C1114.08 135.407 1116.77 126.806 1117.37 117.937C1117.98 109.067 1116.48 100.181 1113 92C1108.53 81.8827 1101.22 73.2825 1091.95 67.2461C1082.68 61.2097 1071.86 57.9973 1060.8 58C1058.02 58.0001 1055.25 58.204 1052.5 58.61C1051.88 58.7 1051.27 58.8 1050.66 58.92C1050.49 58.92 1050.32 58.97 1050.16 59.01C1040.24 60.9189 1031.01 65.4022 1023.37 72.01L1023.1 72.24C1022.53 72.75 1021.96 73.24 1021.41 73.8L1020.96 74.22C1020.46 74.7133 1019.97 75.2133 1019.49 75.72C1019.31 75.91 1019.12 76.09 1018.95 76.29C1018.5 76.77 1018.06 77.29 1017.62 77.77L1017.05 78.44C1016.64 78.93 1016.24 79.44 1015.84 79.95C1015.62 80.22 1015.4 80.49 1015.19 80.77L1014.95 81.09C1007.64 90.902 1003.69 102.814 1003.7 115.05Z" fill="#DE5F66"/>
<path d="M882.12 338.67C880.972 340.582 880.601 342.862 881.084 345.039C881.567 347.217 882.867 349.126 884.716 350.374C886.564 351.621 888.821 352.112 891.021 351.745C893.221 351.377 895.197 350.18 896.54 348.4L882.12 338.67Z" fill="black"/>
<path d="M889.6 334.41C888.091 334.41 886.608 334.803 885.296 335.55C883.985 336.297 882.89 337.372 882.12 338.67L896.54 348.4C897.528 347.108 898.134 345.566 898.29 343.947C898.446 342.328 898.146 340.698 897.424 339.241C896.702 337.785 895.586 336.559 894.204 335.703C892.821 334.848 891.226 334.396 889.6 334.4V334.41Z" fill="black"/>
<path d="M1346.49 342.43V566.37C1347.13 559.23 1349.1 552.273 1352.3 545.86L1460.81 328.11V171.84C1460.75 184.118 1456.72 196.047 1449.31 205.84L1346.49 342.43Z" fill="#F6948B"/>
<path d="M1455.33 597.21C1491.88 523.68 1555.33 396.61 1555.33 396.61C1544.38 392.557 1534.93 385.246 1528.25 375.662C1521.58 366.078 1518 354.679 1518 343V228.66L1523.72 203.48L1460.83 328.11V571.64C1460.84 582.796 1457.58 593.71 1451.45 603.03C1452.84 601.156 1454.13 599.214 1455.33 597.21Z" fill="#F4B3CC"/>
<path d="M1346.49 566.37V571.64C1346.49 586.801 1352.51 601.34 1363.23 612.062C1373.95 622.783 1388.49 628.807 1403.65 628.81C1418.81 628.807 1433.35 622.783 1444.07 612.062C1454.79 601.34 1460.81 586.801 1460.81 571.64V328.11L1352.3 545.86C1349.1 552.273 1347.13 559.23 1346.49 566.37Z" fill="#E870A5"/>
<path d="M1175 335.64V393.09C1176.17 383.026 1180 373.456 1186.11 365.37L1289.33 228.29V57.9399C1289.23 65.4198 1287.66 72.8073 1284.71 79.6799L1175 335.64Z" fill="#C6E7E5"/>
<path d="M1600.28 177.32C1607.05 180.69 1613.08 185.36 1618.04 191.063C1623.01 196.767 1626.8 203.392 1629.2 210.56C1631.6 217.728 1632.56 225.299 1632.04 232.84C1631.51 240.381 1629.5 247.744 1626.13 254.51L1555.31 396.61C1561.66 398.958 1568.37 400.157 1575.14 400.15C1590.3 400.15 1604.84 394.129 1615.56 383.412C1626.28 372.695 1632.3 358.159 1632.31 343V228.66C1632.31 217.652 1629.13 206.879 1623.16 197.634C1617.18 188.388 1608.67 181.064 1598.63 176.54C1599.18 176.8 1599.74 177.04 1600.28 177.32Z" fill="#DDE21E"/>
<path d="M1575.14 171.8C1543.57 171.8 1519.14 197.42 1517.98 228.88V343.06C1517.98 354.731 1521.56 366.121 1528.24 375.695C1534.91 385.27 1544.36 392.569 1555.31 396.61L1626.13 254.7C1629.5 247.942 1631.51 240.586 1632.03 233.052C1632.55 225.519 1631.59 217.955 1629.19 210.795C1626.79 203.635 1623 197.019 1618.04 191.325C1613.08 185.63 1607.04 180.97 1600.28 177.61C1599.74 177.34 1599.18 177.1 1598.63 176.84C1591.24 173.524 1583.24 171.819 1575.14 171.84V171.8Z" fill="#4C87C7"/>
<path d="M1282.15 427.87L1346.49 342.43V171.49C1346.47 159.199 1350.43 147.233 1357.78 137.38L1289.32 228.29V400.15C1289.33 409.85 1286.86 419.392 1282.15 427.87Z" fill="#2FAFE5"/>
<path d="M1346.49 342.43L1449.31 205.88C1456.72 196.086 1460.75 184.158 1460.81 171.88V171.62C1460.81 171.46 1460.81 171.3 1460.81 171.14C1460.81 170.36 1460.81 169.57 1460.75 168.79C1460.75 168.34 1460.69 167.89 1460.66 167.44C1460.63 166.99 1460.6 166.52 1460.56 166.07C1460.5 165.45 1460.42 164.83 1460.34 164.21C1460.34 163.93 1460.27 163.66 1460.24 163.38C1460.13 162.66 1460.01 161.95 1459.88 161.24L1459.79 160.71C1459.64 159.95 1459.48 159.19 1459.3 158.44L1459.21 158.04C1459.02 157.28 1458.82 156.53 1458.61 155.78L1458.49 155.37C1458.28 154.65 1458.05 153.93 1457.81 153.22L1457.63 152.68C1457.4 152.03 1457.16 151.39 1456.91 150.75L1456.61 149.99C1456.39 149.44 1456.15 148.9 1455.91 148.35C1455.76 148.01 1455.61 147.67 1455.45 147.35C1455.29 147.03 1455.03 146.47 1454.81 146.04L1454.15 144.74L1453.61 143.74C1453.32 143.22 1453.02 142.74 1452.72 142.2C1452.58 141.97 1452.44 141.73 1452.29 141.5C1451.93 140.92 1451.56 140.34 1451.18 139.77C1451.08 139.61 1450.97 139.46 1450.86 139.3C1450.44 138.68 1450 138.07 1449.56 137.47C1449.47 137.35 1449.38 137.24 1449.3 137.12C1448.83 136.5 1448.3 135.89 1447.85 135.28L1447.59 134.97C1447.09 134.38 1446.59 133.79 1446.07 133.22C1445.95 133.08 1445.82 132.96 1445.7 132.82C1445.21 132.29 1444.7 131.77 1444.2 131.25C1444.01 131.05 1443.81 130.86 1443.61 130.67C1443.16 130.23 1442.71 129.8 1442.25 129.38L1441.25 128.47C1440.91 128.17 1440.57 127.87 1440.25 127.58C1439.65 127.08 1439.04 126.58 1438.41 126.12L1438.07 125.85C1435.77 124.117 1433.34 122.559 1430.8 121.19L1430.34 120.96C1429.67 120.6 1428.99 120.25 1428.34 119.96L1427.47 119.56C1426.91 119.31 1426.35 119.05 1425.79 118.82C1425.42 118.66 1425.05 118.52 1424.67 118.38C1424.29 118.24 1423.67 117.99 1423.2 117.81C1422.73 117.63 1422.32 117.51 1421.88 117.36L1420.56 116.92L1419.03 116.49L1417.87 116.17C1417.28 116.02 1416.69 115.89 1416.09 115.76L1415.16 115.55C1414.42 115.4 1413.67 115.27 1412.92 115.15L1412.41 115.06C1409.56 114.625 1406.68 114.408 1403.79 114.41H1403.36C1402.57 114.41 1401.79 114.41 1401.01 114.47C1400.56 114.47 1400.11 114.53 1399.66 114.56L1398.28 114.66C1397.66 114.72 1397.04 114.8 1396.43 114.88L1395.6 114.99C1394.88 115.09 1394.17 115.21 1393.45 115.34L1392.93 115.44C1392.17 115.58 1391.41 115.75 1390.66 115.92L1390.26 116.01C1389.5 116.2 1388.75 116.4 1388 116.61L1387.58 116.73C1386.86 116.94 1386.15 117.17 1385.44 117.41L1384.89 117.6C1384.25 117.82 1383.61 118.06 1382.97 118.31L1382.21 118.61C1381.66 118.83 1381.11 119.07 1380.57 119.31L1379.57 119.77L1378.25 120.41C1377.82 120.63 1377.38 120.85 1376.96 121.08L1375.96 121.61C1375.44 121.9 1374.96 122.2 1374.42 122.5L1373.72 122.93C1373.14 123.29 1372.56 123.66 1371.99 124.04L1371.52 124.36L1369.68 125.66C1369.57 125.75 1369.46 125.84 1369.34 125.92C1368.72 126.4 1368.1 126.92 1367.5 127.37L1367.19 127.64C1366.59 128.13 1366.01 128.64 1365.43 129.15L1365.04 129.52C1364.51 130.01 1363.98 130.52 1363.47 131.02C1363.27 131.21 1363.08 131.42 1362.89 131.62C1362.45 132.06 1362.02 132.51 1361.59 132.97C1361.16 133.43 1360.99 133.66 1360.68 133.97C1360.37 134.28 1360.09 134.65 1359.8 134.97C1359.3 135.57 1358.8 136.18 1358.34 136.81L1358.04 137.19L1357.89 137.39C1350.54 147.243 1346.58 159.209 1346.6 171.5L1346.49 342.43Z" fill="#F06A22"/>
<path d="M1175 393.09V400.15C1174.99 415.194 1180.92 429.633 1191.51 440.32C1191.89 440.7 1192.26 441.07 1192.65 441.44L1192.96 441.72C1194.37 443.028 1195.84 444.263 1197.38 445.42C1209.49 454.538 1224.73 458.472 1239.75 456.357C1254.76 454.242 1268.32 446.25 1277.44 434.14L1282.16 427.87C1286.87 419.392 1289.34 409.85 1289.33 400.15V228.29L1186.1 365.37C1180 373.457 1176.17 383.027 1175 393.09Z" fill="#4C87C7"/>
<path d="M1113.7 478.65L1174.99 335.65V57.16C1174.98 49.68 1176.45 42.272 1179.31 35.36L1117.83 178.8V457.31C1117.83 464.622 1116.43 471.867 1113.7 478.65Z" fill="#DDE21E"/>
<path d="M1175 335.64L1284.71 79.64C1287.66 72.7673 1289.23 65.3798 1289.33 57.9V57.12C1289.33 55.2 1289.23 53.29 1289.05 51.41L1288.96 50.7C1288.89 50.05 1288.81 49.4 1288.72 48.76C1288.64 48.27 1288.56 47.76 1288.47 47.29C1288.38 46.82 1288.34 46.53 1288.27 46.15C1288.14 45.48 1287.99 44.82 1287.84 44.15C1287.84 43.95 1287.75 43.75 1287.7 43.56C1287.51 42.78 1287.3 42.01 1287.08 41.24L1287 41C1286.75 40.17 1286.49 39.34 1286.21 38.53V38.43C1285.92 37.6 1285.61 36.77 1285.28 35.95V35.86C1284.96 35.07 1284.62 34.28 1284.28 33.51C1284.28 33.43 1284.21 33.35 1284.18 33.28C1283.85 32.57 1283.51 31.86 1283.18 31.16C1283.1 31.01 1283.02 30.86 1282.95 30.71C1282.63 30.1 1282.3 29.5 1281.95 28.9C1281.81 28.65 1281.67 28.4 1281.52 28.16C1281.24 27.67 1280.95 27.16 1280.65 26.72L1279.97 25.66C1279.73 25.31 1279.5 24.96 1279.25 24.61C1279 24.26 1278.62 23.7 1278.25 23.25L1277.74 22.55C1277.32 22.01 1276.9 21.47 1276.47 20.94L1276.14 20.55C1275.64 19.94 1275.14 19.35 1274.6 18.77L1274.43 18.58C1273.86 17.95 1273.27 17.34 1272.67 16.73L1272.59 16.66C1271.97 16.04 1271.33 15.43 1270.68 14.84L1270.6 14.77C1269.96 14.19 1269.31 13.62 1268.6 13.07L1268.4 12.9C1267.78 12.4 1267.15 11.9 1266.51 11.42L1266.03 11.06L1264.37 9.87995L1263.37 9.24995C1262.96 8.97995 1262.55 8.69995 1262.13 8.44995C1261.71 8.19995 1261 7.76995 1260.43 7.44995L1259.81 7.09995C1258.14 6.17232 1256.43 5.33121 1254.68 4.57995C1247.56 1.53802 1239.9 -0.0204003 1232.16 -4.73276e-05C1230.23 -4.73276e-05 1228.32 0.0999527 1226.45 0.279953L1225.74 0.369953C1225.09 0.439953 1224.44 0.519953 1223.74 0.619953C1223.25 0.686619 1222.76 0.766619 1222.27 0.859953L1221.13 1.05995C1220.46 1.19995 1219.8 1.33995 1219.13 1.49995L1218.54 1.62995C1217.76 1.81995 1216.99 2.02995 1216.22 2.24995L1215.97 2.31995C1215.14 2.56995 1214.32 2.82995 1213.5 3.10995H1213.4C1212.57 3.39995 1211.75 3.70995 1210.93 4.03995H1210.83C1210.04 4.35995 1209.25 4.69995 1208.48 5.03995L1208.25 5.13995C1207.54 5.46995 1206.83 5.81995 1206.13 6.13995L1205.68 6.36995C1205.07 6.68995 1204.47 7.02329 1203.88 7.36995L1203.13 7.79995C1202.65 8.07995 1202.13 8.36995 1201.7 8.66995L1200.63 9.34995L1199.63 10.07C1199.17 10.38 1198.72 10.71 1198.27 11.07L1197.58 11.59C1197.03 12.0033 1196.49 12.4233 1195.96 12.85L1195.57 13.18C1194.97 13.68 1194.37 14.18 1193.79 14.72L1193.61 14.89C1192.98 15.46 1192.36 16.05 1191.75 16.65L1191.68 16.73C1191.06 17.35 1190.45 17.99 1189.86 18.64L1189.79 18.72C1189.21 19.36 1188.64 20.01 1188.09 20.72L1187.93 20.92C1187.42 21.54 1186.93 22.17 1186.45 22.81C1186.32 22.97 1186.21 23.13 1186.09 23.3C1185.69 23.84 1185.29 24.39 1184.91 24.95L1184.27 25.95C1184 26.36 1183.73 26.77 1183.47 27.2C1183.21 27.63 1182.79 28.32 1182.47 28.89C1182.35 29.1 1182.23 29.3 1182.12 29.51C1181.2 31.1756 1180.36 32.8879 1179.61 34.64L1179.3 35.36C1176.44 42.272 1174.97 49.68 1174.98 57.16L1175 335.64Z" fill="#88C652"/>
<path d="M1003.5 455.3V457.3C1003.5 472.461 1009.52 487.001 1020.24 497.722C1030.96 508.443 1045.5 514.467 1060.66 514.47C1069.09 514.478 1077.42 512.617 1085.05 509.021C1092.68 505.424 1099.41 500.181 1104.77 493.67C1105.31 493.01 1105.83 492.34 1106.35 491.67L1106.74 491.14C1107.11 490.63 1107.48 490.14 1107.83 489.6C1108.18 489.06 1108.42 488.72 1108.71 488.27C1108.88 487.99 1109.06 487.72 1109.24 487.44C1110.73 485.023 1112.04 482.499 1113.16 479.89L1113.69 478.66C1116.42 471.877 1117.82 464.632 1117.82 457.32V178.8L1008.07 434.8C1005.29 441.292 1003.74 448.243 1003.5 455.3Z" fill="#55C4C6"/>
<path d="M131.85 289.38C141.41 289.38 146.95 294.92 146.95 301.97C146.95 310.52 128.83 332.16 122.79 345.25C117.79 355.31 113.74 366.38 113.74 373.43C113.74 378.43 115.74 384 120.28 384C136.89 384 165.07 353.8 183.19 332.16C189.19 324.61 195.77 316.56 201.3 316.56C205.83 316.56 209.3 319.08 209.3 324.11C209.3 329.64 206.79 333.17 200.75 340.72C176.59 369.4 137.84 407.15 112.18 407.15C95.57 407.15 87.52 395.57 87.52 381.48C87.52 375.94 88.02 370.91 88.52 363.87C74 378.46 39.76 412.68 17.11 412.68C10.57 412.68 0 403.62 0 390.54C0 338.7 58.38 288.38 96.63 288.38C104.68 288.38 112.23 293.38 117.26 299.45C118.77 299.45 124.3 289.38 131.85 289.38ZM27.18 381.48C27.18 384 29.18 385.48 31.7 385.48C39.25 385.48 101.15 331.63 101.15 322.07C101.15 316.53 96.63 312 90.08 312C70 312 27.18 358.33 27.18 381.48Z" fill="black"/>
<path d="M386 316.56C390.53 316.56 394.05 319.08 394.05 324.11C394.05 329.64 391.54 333.17 385.5 340.72C361.84 369.9 323.6 412.72 295.41 412.72C273.77 412.72 267.23 398.63 267.23 381.52C267.23 367.43 274.78 351.32 274.78 337.23C274.78 333.71 272.78 331.23 268.24 331.23C247.6 331.23 202.31 378.54 194.24 403.7C190.72 414.77 184.17 419.81 177.63 419.81C170.63 419.81 165.05 412.76 165.05 402.19C165.05 380.55 196.76 281.92 242.55 208.94C274.26 158.11 308.48 127.42 332.13 127.42C342.2 127.42 354.28 135.42 354.28 149.06C354.28 164.66 346.22 197.87 311 239.64C275.26 281.41 251.61 292.48 224.43 316.14C217.89 321.67 210.34 340.29 206.82 350.36C230 325.62 261.18 306 280.31 306C296.91 306 302.45 314.05 302.45 327.14C302.45 343.24 294.9 360.86 294.9 377.97C294.9 386 298.42 390 303 390C321.62 390 357.86 345.72 367.92 332.13C373.91 324.61 380.45 316.56 386 316.56ZM264.71 217.92C235.52 267.24 230 284.35 230 284.35C230 284.35 261.71 265.73 292.4 227.99C323.1 189.24 333.17 165.08 333.17 156.99C333.17 153.46 330.65 150.99 326.63 150.99C314.53 151 288.36 177.66 264.71 217.92Z" fill="black"/>
<path d="M458.45 305.49C458.45 309.01 459.96 320.59 465 320.59C477.58 320.59 486.13 317.06 495.19 313.04C499.72 311.04 506.77 306.49 509.79 306.49C515.79 306.49 519.35 309.01 519.35 315.55C519.35 321.55 511.8 328.13 495.19 336.19C479.09 343.74 458.45 344.74 453.42 344.74C441.85 374.43 419.2 413.19 383.47 413.19C368.37 413.19 353.78 401.61 353.78 378.96C353.78 331.66 396.05 287.37 429.78 287.37C449.39 287.37 458.45 296.93 458.45 305.49ZM424.23 323.61C424.408 320.174 425.082 316.783 426.23 313.54C406.09 314.54 378.42 349.27 378.42 379.97C378.42 387.52 383.95 393.05 388.98 393.05C407.6 393.05 432.26 348.26 432.26 335.68C429.26 335.18 424.23 329.14 424.23 323.61Z" fill="black"/>
<path d="M588.79 460C578.73 534 536.45 639.65 473 639.65C453.88 639.65 436.77 626.06 436.77 603.42C436.77 579.76 451.36 537.49 486.59 499.24C515.78 467.03 556.04 446.9 565.59 442.88C569.59 404.63 575.15 346.25 575.15 338.7C562.57 357.83 521.31 412.7 494.15 412.7C484.08 412.7 475.03 405.15 475.03 390.56C475.03 376.47 490.63 332.18 497.17 317.08C504.17 299.97 511.76 290.91 520.82 290.91C529.38 290.91 533.91 295.91 533.91 301.48C533.91 306.01 529.91 311.55 523.84 321.11C513.78 336.71 500.19 377.47 500.19 382C500.19 385 500.69 387 503.19 387C515.27 387 550.49 339.69 560.06 325.09C567.6 314.53 575.15 301.44 577.67 299.43C582.2 295.43 593.27 289.87 597.8 289.87C602.33 289.87 608.37 290.87 608.37 298.93C608.385 302.222 607.703 305.48 606.37 308.49C602.348 319.136 599.987 330.337 599.37 341.7C594.84 406.62 592.83 424.7 591.82 439.84C594.638 439.256 597.503 438.921 600.38 438.84C624.53 438.84 650.2 449.91 650.2 473.57C650.2 483.13 645.2 493.7 634.1 493.7C625.04 493.7 621.51 488.7 621.51 481.62C621.51 477.62 623.02 474.57 623.02 468.53C623.02 464 613.46 458.47 599.87 458.47C596.132 458.578 592.417 459.091 588.79 460ZM499.21 520.39C471.53 550.57 460 586.81 460 604.93C460 613.48 466.54 620.53 474.09 620.53C519.38 620.53 558.09 518.87 564.17 466.53C554.57 471.56 525.38 491.19 499.21 520.38V520.39Z" fill="black"/>
<path d="M749.83 316.56C754.36 316.56 757.83 319.08 757.83 324.11C757.83 329.64 755.32 333.17 749.28 340.72C725.62 369.4 682.34 412.72 653.66 412.72C633.53 412.72 615.91 398.13 615.91 373.97C615.91 331.7 649.63 253.19 677.81 204.88C708.01 153.54 730.66 128.88 759.34 128.88C771.42 128.88 779.47 138.95 779.47 149.52C779.47 164.11 772.47 194.81 736.19 241.11C708.01 276.84 683.85 297.98 657.19 319.11C649.14 333.2 642.09 360.88 642.09 371.44C642.09 384.03 647.63 391.07 657.19 391.07C677.32 391.07 714.56 355.34 731.67 332.19C737.75 324.61 744.29 316.56 749.83 316.56ZM697 215.91C676.36 252.65 669.82 272.27 666.8 283.34C676.87 275.34 698 254.16 718.64 226.48C745.31 191.25 755.38 168.6 755.38 158.03C755.38 155.03 753.87 153.5 750.38 153.5C744.29 153.5 722.15 171.12 697 215.91Z" fill="black"/>
<path d="M866.59 361.35C871.12 361.35 874.59 363.87 874.59 368.9C874.59 374.43 868.59 380.47 860.5 388.02C846.91 400.6 831.31 407.15 819.73 407.15C803.13 407.15 795.08 395.57 795.08 381.48C795.08 375.94 795.58 370.91 796.08 363.87C781.49 378.46 747.27 412.68 724.62 412.68C718.08 412.68 707.51 403.62 707.51 390.54C707.51 338.7 765.89 288.38 804.13 288.38C812.19 288.38 819.73 293.38 824.77 299.45C826.28 299.45 831.77 289.38 839.36 289.38C848.92 289.38 854.46 294.92 854.46 301.97C854.46 310.52 836.34 332.16 830.3 345.25C825.3 355.31 821.24 366.38 821.24 373.43C821.24 378.43 823.24 384 829.3 384C834.3 384 841.37 380.47 848.92 373.93C856 367.39 861.05 361.35 866.59 361.35ZM734.73 381.48C734.73 384 736.73 385.48 739.26 385.48C746.81 385.48 808.71 331.63 808.71 322.07C808.71 316.53 804.18 312 797.64 312C777.51 312 734.73 358.33 734.73 381.48Z" fill="black"/>
</g>
<defs>
<clipPath id="clip0">
<rect width="1632.31" height="639.65" fill="white"/>
</clipPath>
</defs>
</svg>
