<svg width="150" height="59" viewBox="0 0 150 59" fill="none" xmlns="http://www.w3.org/2000/svg">
<g clip-path="url(#clip0)">
<g style="mix-blend-mode:luminosity" opacity="0.5">
<path d="M94.0396 6.64123C94.7412 6.03174 95.5902 5.61821 96.5014 5.44214C95.5891 5.61502 94.7393 6.02893 94.0396 6.64123Z" fill="#F4B3CC"/>
</g>
<g style="mix-blend-mode:luminosity" opacity="0.5">
<path d="M93.8594 6.80624C93.9099 6.75736 93.9623 6.70939 94.0147 6.66235C93.9623 6.70939 93.9099 6.75736 93.8594 6.80624Z" fill="#F4B3CC"/>
</g>
<g style="mix-blend-mode:luminosity" opacity="0.5">
<path d="M96.5469 5.43387C96.6029 5.4228 96.659 5.41358 96.716 5.40527C96.659 5.41358 96.6029 5.42372 96.5469 5.43387Z" fill="#F4B3CC"/>
</g>
<g style="mix-blend-mode:luminosity" opacity="0.5">
<path d="M93.6826 6.98333C93.7267 6.93659 93.7718 6.89047 93.8177 6.84497C93.7718 6.89047 93.7267 6.93659 93.6826 6.98333Z" fill="#F4B3CC"/>
</g>
<g style="mix-blend-mode:luminosity" opacity="0.5">
<path d="M93.3472 7.37341C93.3839 7.32637 93.4207 7.28117 93.4584 7.23413C93.4198 7.27933 93.383 7.32637 93.3472 7.37341Z" fill="#F4B3CC"/>
</g>
<g style="mix-blend-mode:luminosity" opacity="0.5">
<path d="M93.5112 7.1724C93.5517 7.12628 93.5921 7.08016 93.6335 7.03589C93.5921 7.08016 93.5489 7.12628 93.5112 7.1724Z" fill="#F4B3CC"/>
</g>
<g style="mix-blend-mode:luminosity" opacity="0.5">
<path d="M93.2877 7.44922L93.2656 7.47873L93.2877 7.44922Z" fill="#F4B3CC"/>
</g>
<path d="M101.959 13.19C101.799 13.4579 101.603 13.7028 101.377 13.9177L92.2344 22.6905V42.1573C92.2346 43.5532 92.7873 44.8919 93.7708 45.8789C94.7543 46.8659 96.0881 47.4204 97.4788 47.4204C98.8695 47.4204 100.203 46.8659 101.187 45.8789C102.17 44.8919 102.722 43.5532 102.722 42.1573V10.6119C102.724 9.87993 102.572 9.15574 102.278 8.48584C102.598 9.2399 102.735 10.0589 102.679 10.8763C102.624 11.6937 102.377 12.4864 101.959 13.19Z" fill="#F4B3CC"/>
<g style="mix-blend-mode:luminosity" opacity="0.5">
<path d="M93.6333 7.03597C93.6489 7.01753 93.6664 7.00092 93.6829 6.9834C93.6664 7.00092 93.6489 7.01753 93.6333 7.03597Z" fill="#2FAFE5"/>
</g>
<g style="mix-blend-mode:luminosity" opacity="0.5">
<path d="M93.3041 7.42611L93.2876 7.44917C93.3069 7.42334 93.3271 7.39844 93.3473 7.37354C93.3326 7.39106 93.3179 7.40766 93.3041 7.42611Z" fill="#2FAFE5"/>
</g>
<g style="mix-blend-mode:luminosity" opacity="0.5">
<path d="M97.4792 5.34987C98.496 5.34908 99.4912 5.64513 100.343 6.20195C101.196 6.75877 101.868 7.55233 102.279 8.48596C101.924 7.65099 101.356 6.92487 100.632 6.38109C100.078 5.9646 99.446 5.66362 98.774 5.49586C98.102 5.32811 97.4034 5.29698 96.7192 5.40429C96.9718 5.36684 97.2267 5.34803 97.482 5.34802L97.4792 5.34987Z" fill="#2FAFE5"/>
</g>
<g style="mix-blend-mode:luminosity" opacity="0.5">
<path d="M93.4565 7.23416L93.5089 7.17236L93.4565 7.23416Z" fill="#2FAFE5"/>
</g>
<g style="mix-blend-mode:luminosity" opacity="0.5">
<path d="M96.501 5.44214C96.5157 5.44214 96.5313 5.4366 96.5469 5.43384C96.5313 5.4366 96.5157 5.44214 96.501 5.44214Z" fill="#2FAFE5"/>
</g>
<path d="M93.2653 7.47876C93.0577 7.75626 92.8777 8.05345 92.7277 8.36609L81.0571 31.2411C81.1131 31.1476 81.1874 31.0665 81.2756 31.0027C81.3638 30.939 81.4639 30.8939 81.57 30.8703C81.6761 30.8467 81.7859 30.845 81.8927 30.8654C81.9994 30.8857 82.1009 30.9277 82.191 30.9887C82.2811 31.0497 82.3579 31.1285 82.4166 31.2202C82.4754 31.312 82.5149 31.4148 82.5328 31.5224C82.5507 31.63 82.5466 31.7401 82.5207 31.846C82.4948 31.952 82.4477 32.0515 82.3822 32.1386L92.2342 22.6906V10.6121C92.2326 9.48341 92.5942 8.3844 93.2653 7.47876Z" fill="#FFD475"/>
<g style="mix-blend-mode:luminosity" opacity="0.5">
<path d="M94.0142 6.66233L94.039 6.64111L94.0142 6.66233Z" fill="#2FAFE5"/>
</g>
<g style="mix-blend-mode:luminosity" opacity="0.5">
<path d="M93.8179 6.84514L93.8592 6.8064L93.8179 6.84514Z" fill="#2FAFE5"/>
</g>
<g style="mix-blend-mode:luminosity" opacity="0.5">
<path d="M92.2344 10.612V22.6906L101.377 13.9215C101.603 13.7066 101.799 13.4617 101.959 13.1938C102.378 12.4898 102.625 11.6964 102.68 10.8783C102.736 10.0602 102.598 9.24051 102.278 8.48594C101.868 7.55275 101.196 6.75948 100.344 6.2027C99.4925 5.64591 98.4979 5.34961 97.4816 5.34985C97.2263 5.34986 96.9714 5.36867 96.7188 5.40612C96.6619 5.41442 96.6058 5.42364 96.5497 5.43471C96.5341 5.43471 96.5185 5.43932 96.5038 5.44301C95.5926 5.61909 94.7436 6.03262 94.0419 6.64211L94.0171 6.66332C93.9647 6.71036 93.9124 6.75556 93.8618 6.80721L93.8205 6.84595C93.7745 6.89146 93.7295 6.93758 93.6854 6.98431C93.6688 7.00184 93.6514 7.01844 93.6358 7.03689C93.5944 7.08116 93.554 7.12912 93.5135 7.1734L93.4612 7.2352C93.4235 7.28039 93.3867 7.32744 93.35 7.37448C93.3298 7.39938 93.3095 7.42429 93.2902 7.45011L93.2682 7.47963C92.5963 8.38467 92.2337 9.48336 92.2344 10.612Z" fill="#F4B3CC"/>
</g>
<path d="M92.2344 10.612V22.6906L101.377 13.9215C101.603 13.7066 101.799 13.4617 101.959 13.1938C102.378 12.4898 102.625 11.6964 102.68 10.8783C102.736 10.0602 102.598 9.24051 102.278 8.48594C101.868 7.55275 101.196 6.75948 100.344 6.2027C99.4925 5.64591 98.4979 5.34961 97.4816 5.34985C97.2263 5.34986 96.9714 5.36867 96.7188 5.40612C96.6619 5.41442 96.6058 5.42364 96.5497 5.43471C96.5341 5.43471 96.5185 5.43932 96.5038 5.44301C95.5926 5.61909 94.7436 6.03262 94.0419 6.64211L94.0171 6.66332C93.9647 6.71036 93.9124 6.75556 93.8618 6.80721L93.8205 6.84595C93.7745 6.89146 93.7295 6.93758 93.6854 6.98431C93.6688 7.00184 93.6514 7.01844 93.6358 7.03689C93.5944 7.08116 93.554 7.12912 93.5135 7.1734L93.4612 7.2352C93.4235 7.28039 93.3867 7.32744 93.35 7.37448C93.3298 7.39938 93.3095 7.42429 93.2902 7.45011L93.2682 7.47963C92.5963 8.38467 92.2337 9.48336 92.2344 10.612Z" fill="#DE5F66"/>
<path d="M81.0619 31.2383C80.9564 31.4147 80.9224 31.6249 80.9667 31.8258C81.0111 32.0266 81.1306 32.2027 81.3005 32.3178C81.4704 32.4329 81.6778 32.4781 81.8799 32.4443C82.0821 32.4104 82.2636 32.3 82.387 32.1357L81.0619 31.2383Z" fill="white"/>
<path d="M81.7494 30.8454C81.6107 30.8454 81.4744 30.8817 81.3539 30.9506C81.2334 31.0195 81.1328 31.1186 81.062 31.2383L82.3872 32.1358C82.478 32.0167 82.5337 31.8744 82.5481 31.7251C82.5624 31.5758 82.5349 31.4254 82.4685 31.2911C82.4021 31.1567 82.2996 31.0436 82.1725 30.9647C82.0454 30.8858 81.8989 30.8441 81.7494 30.8445V30.8454Z" fill="white"/>
<path d="M123.735 31.585V52.2408C123.793 51.5822 123.975 50.9405 124.269 50.349L134.24 30.2641V15.8501C134.235 16.9826 133.864 18.0829 133.183 18.9862L123.735 31.585Z" fill="#F6948B"/>
<path d="M133.736 55.0854C137.095 48.3032 142.926 36.5825 142.926 36.5825C141.919 36.2086 141.051 35.5343 140.438 34.6503C139.824 33.7662 139.496 32.7149 139.495 31.6376V21.0911L140.021 18.7686L134.242 30.2642V52.7269C134.243 53.7559 133.943 54.7626 133.38 55.6222C133.508 55.4494 133.627 55.2702 133.736 55.0854Z" fill="#F4B3CC"/>
<path d="M123.735 52.2408V52.7269C123.735 54.1253 124.288 55.4664 125.273 56.4553C126.258 57.4442 127.594 57.9999 128.988 58.0001C130.381 57.9999 131.717 57.4442 132.702 56.4553C133.687 55.4664 134.24 54.1253 134.24 52.7269V30.2642L124.269 50.349C123.975 50.9405 123.793 51.5822 123.735 52.2408Z" fill="#E870A5"/>
<path d="M107.976 30.9587V36.2578C108.084 35.3295 108.436 34.4468 108.997 33.7009L118.482 21.057V5.34424C118.473 6.03417 118.329 6.71558 118.058 7.34949L107.976 30.9587Z" fill="#C6E7E5"/>
<path d="M147.057 16.3556C147.679 16.6665 148.233 17.0972 148.689 17.6233C149.145 18.1494 149.493 18.7604 149.714 19.4216C149.935 20.0828 150.023 20.7811 149.975 21.4767C149.927 22.1723 149.742 22.8515 149.432 23.4755L142.924 36.5825C143.508 36.7991 144.125 36.9096 144.747 36.909C146.14 36.909 147.476 36.3537 148.461 35.3652C149.446 34.3767 150 33.0359 150 31.6376V21.0911C150 20.0758 149.708 19.0821 149.159 18.2293C148.61 17.3766 147.827 16.701 146.905 16.2837C146.956 16.3077 147.007 16.3298 147.057 16.3556Z" fill="#DDE21E"/>
<path d="M144.746 15.8464C141.845 15.8464 139.6 18.2096 139.494 21.1114V31.6431C139.494 32.7196 139.823 33.7702 140.436 34.6533C141.05 35.5365 141.918 36.2097 142.924 36.5824L149.432 23.493C149.742 22.8696 149.926 22.1911 149.974 21.4962C150.022 20.8013 149.934 20.1037 149.713 19.4433C149.492 18.7829 149.144 18.1726 148.688 17.6474C148.233 17.1221 147.678 16.6923 147.057 16.3823C147.007 16.3574 146.955 16.3353 146.905 16.3113C146.226 16.0055 145.49 15.8482 144.746 15.8501V15.8464Z" fill="#4C87C7"/>
<path d="M117.822 39.4658L123.735 31.585V15.8179C123.733 14.6842 124.097 13.5804 124.772 12.6716L118.481 21.057V36.909C118.482 37.8037 118.255 38.6838 117.822 39.4658Z" fill="#2FAFE5"/>
<path d="M123.735 31.5851L133.183 18.99C133.864 18.0867 134.235 16.9864 134.24 15.8539V15.8299C134.24 15.8152 134.24 15.8004 134.24 15.7856C134.24 15.7137 134.24 15.6408 134.235 15.5689C134.235 15.5274 134.229 15.4859 134.226 15.4444C134.224 15.4029 134.221 15.3595 134.217 15.318C134.212 15.2608 134.204 15.2036 134.197 15.1464C134.197 15.1206 134.191 15.0957 134.188 15.0699C134.178 15.0035 134.167 14.938 134.155 14.8725L134.146 14.8236C134.133 14.7535 134.118 14.6834 134.101 14.6142L134.093 14.5773C134.076 14.5072 134.057 14.438 134.038 14.3689L134.027 14.331C134.008 14.2646 133.987 14.1982 133.965 14.1327L133.948 14.0829C133.927 14.023 133.905 13.9639 133.882 13.9049L133.854 13.8348C133.834 13.7841 133.812 13.7343 133.79 13.6835C133.776 13.6522 133.762 13.6208 133.748 13.5913C133.733 13.5618 133.709 13.5101 133.689 13.4705L133.628 13.3506L133.579 13.2583C133.552 13.2104 133.524 13.1661 133.497 13.1163C133.484 13.0951 133.471 13.0729 133.457 13.0517C133.424 12.9982 133.39 12.9447 133.355 12.8921C133.346 12.8774 133.336 12.8635 133.326 12.8488C133.287 12.7916 133.247 12.7353 133.206 12.68C133.198 12.6689 133.19 12.6588 133.183 12.6477C133.139 12.5905 133.091 12.5343 133.049 12.478L133.025 12.4494C132.979 12.395 132.933 12.3406 132.886 12.288C132.875 12.2751 132.863 12.264 132.852 12.2511C132.807 12.2022 132.76 12.1542 132.714 12.1063C132.696 12.0878 132.678 12.0703 132.66 12.0528C132.618 12.0122 132.577 11.9725 132.535 11.9338L132.443 11.8498C132.412 11.8222 132.38 11.7945 132.351 11.7678C132.296 11.7216 132.24 11.6755 132.182 11.6331L132.151 11.6082C131.939 11.4484 131.716 11.3047 131.482 11.1784L131.44 11.1571C131.379 11.1239 131.316 11.0916 131.256 11.0649L131.176 11.028C131.125 11.0049 131.074 10.981 131.022 10.9597C130.988 10.945 130.954 10.9321 130.919 10.9192C130.884 10.9063 130.827 10.8832 130.784 10.8666C130.741 10.85 130.703 10.8389 130.663 10.8251L130.541 10.7845L130.401 10.7448L130.294 10.7153C130.24 10.7015 130.186 10.6895 130.131 10.6775L130.045 10.6581C129.977 10.6443 129.908 10.6323 129.839 10.6212L129.793 10.6129C129.53 10.5729 129.266 10.5528 129 10.553H128.961C128.888 10.553 128.817 10.553 128.745 10.5585C128.704 10.5585 128.662 10.564 128.621 10.5668L128.494 10.576C128.437 10.5816 128.38 10.589 128.324 10.5963L128.248 10.6065C128.182 10.6157 128.116 10.6268 128.05 10.6388L128.002 10.648C127.933 10.6609 127.863 10.6766 127.794 10.6923L127.757 10.7006C127.687 10.7181 127.618 10.7365 127.549 10.7559L127.511 10.767C127.445 10.7863 127.379 10.8076 127.314 10.8297L127.264 10.8472C127.205 10.8675 127.146 10.8896 127.087 10.9127L127.017 10.9404C126.967 10.9607 126.916 10.9828 126.867 11.0049L126.775 11.0474L126.653 11.1064C126.614 11.1267 126.573 11.147 126.535 11.1682L126.443 11.2171C126.395 11.2438 126.351 11.2715 126.301 11.2992L126.237 11.3388C126.184 11.3721 126.131 11.4062 126.078 11.4412L126.035 11.4707L125.866 11.5907C125.856 11.599 125.846 11.6073 125.835 11.6146C125.778 11.6589 125.721 11.7069 125.666 11.7484L125.637 11.7733C125.582 11.8185 125.529 11.8655 125.475 11.9126L125.44 11.9467C125.391 11.9919 125.342 12.0389 125.295 12.0851C125.277 12.1026 125.259 12.1219 125.242 12.1404C125.201 12.181 125.162 12.2225 125.122 12.2649C125.083 12.3073 125.067 12.3286 125.039 12.3572C125.01 12.3857 124.985 12.4199 124.958 12.4494C124.912 12.5047 124.866 12.561 124.824 12.6191L124.796 12.6542L124.782 12.6726C124.107 13.5814 123.743 14.6852 123.745 15.8188L123.735 31.5851Z" fill="#F06A22"/>
<path d="M107.976 36.2579V36.9091C107.975 38.2968 108.52 39.6286 109.493 40.6143C109.528 40.6494 109.562 40.6835 109.598 40.7176L109.626 40.7435C109.756 40.8641 109.892 40.978 110.033 41.0848C111.146 41.9258 112.546 42.2887 113.926 42.0936C115.305 41.8984 116.551 41.1613 117.39 40.0443L117.824 39.466C118.257 38.684 118.483 37.8039 118.482 36.9091V21.0571L108.996 33.7011C108.435 34.447 108.083 35.3297 107.976 36.2579Z" fill="#4C87C7"/>
<path d="M102.343 44.1496L107.975 30.9596V5.27226C107.974 4.58232 108.109 3.89902 108.372 3.26147L102.722 16.4921V42.1813C102.723 42.8557 102.594 43.524 102.343 44.1496Z" fill="#DDE21E"/>
<path d="M107.976 30.9588L118.058 7.34585C118.329 6.71193 118.473 6.03052 118.482 5.34059V5.26865C118.482 5.09155 118.473 4.91538 118.457 4.74197L118.448 4.67648C118.442 4.61653 118.434 4.55657 118.426 4.49754C118.419 4.45234 118.412 4.4053 118.403 4.36195C118.395 4.3186 118.391 4.29185 118.385 4.2568C118.373 4.195 118.359 4.13412 118.345 4.07232C118.345 4.05388 118.337 4.03543 118.332 4.0179C118.315 3.94596 118.296 3.87493 118.275 3.80391L118.268 3.78177C118.245 3.70522 118.221 3.62866 118.196 3.55395V3.54472C118.169 3.46816 118.14 3.39161 118.11 3.31597V3.30767C118.081 3.2348 118.049 3.16193 118.018 3.09091C118.018 3.08353 118.012 3.07615 118.009 3.0697C117.979 3.00421 117.947 2.93872 117.917 2.87415C117.91 2.86032 117.902 2.84648 117.896 2.83264C117.867 2.77638 117.836 2.72104 117.804 2.66569C117.791 2.64263 117.778 2.61958 117.765 2.59744C117.739 2.55224 117.712 2.5052 117.685 2.46462L117.622 2.36684C117.6 2.33456 117.579 2.30228 117.556 2.26999C117.533 2.23771 117.498 2.18606 117.464 2.14455L117.417 2.07998C117.379 2.03017 117.34 1.98037 117.3 1.93148L117.27 1.89551C117.224 1.83924 117.178 1.78482 117.129 1.73132L117.113 1.7138C117.061 1.65569 117.006 1.59942 116.951 1.54316L116.944 1.5367C116.887 1.47951 116.828 1.42325 116.768 1.36883L116.761 1.36237C116.702 1.30887 116.643 1.2563 116.577 1.20557L116.559 1.18989C116.502 1.14377 116.444 1.09765 116.385 1.05338L116.341 1.02017L116.189 0.911329L116.097 0.853219C116.059 0.828315 116.021 0.802488 115.983 0.779429C115.944 0.756369 115.879 0.716707 115.827 0.687191L115.77 0.654907C115.616 0.569345 115.459 0.491762 115.298 0.422468C114.644 0.141887 113.94 -0.00185917 113.229 1.81536e-05C113.051 1.81536e-05 112.876 0.00924195 112.704 0.0258448L112.639 0.0341462C112.579 0.0406028 112.519 0.0479819 112.455 0.0572057C112.41 0.0633549 112.365 0.0707339 112.32 0.0793428L112.215 0.0977904C112.153 0.110704 112.093 0.123617 112.031 0.138375L111.977 0.150366C111.905 0.167891 111.835 0.187261 111.764 0.207553L111.741 0.21401C111.665 0.23707 111.589 0.261051 111.514 0.286878H111.505C111.428 0.313627 111.353 0.342221 111.278 0.372659H111.269C111.196 0.402176 111.123 0.433536 111.053 0.464897L111.031 0.474121C110.966 0.50456 110.901 0.536843 110.837 0.566359L110.795 0.587574C110.74 0.61709 110.684 0.647836 110.63 0.679812L110.561 0.719474C110.517 0.745301 110.469 0.77205 110.43 0.799721L110.331 0.862443L110.239 0.928854C110.197 0.957448 110.156 0.987886 110.114 1.02109L110.051 1.06906C110 1.10718 109.95 1.14592 109.902 1.18528L109.866 1.21571C109.811 1.26183 109.756 1.30795 109.703 1.35776L109.686 1.37344C109.628 1.42602 109.571 1.48044 109.515 1.53578L109.509 1.54316C109.452 1.60035 109.396 1.65938 109.342 1.71933L109.335 1.72671C109.282 1.78574 109.229 1.8457 109.179 1.91119L109.164 1.92964C109.117 1.98682 109.072 2.04493 109.028 2.10397C109.016 2.11872 109.006 2.13348 108.995 2.14916C108.958 2.19897 108.922 2.2497 108.887 2.30135L108.828 2.39359C108.803 2.43141 108.778 2.46923 108.754 2.50889C108.73 2.54855 108.692 2.6122 108.662 2.66477C108.651 2.68414 108.64 2.70259 108.63 2.72196C108.545 2.8756 108.468 3.03354 108.4 3.19514L108.371 3.26155C108.108 3.8991 107.973 4.5824 107.974 5.27234L107.976 30.9588Z" fill="#88C652"/>
<path d="M92.2163 41.996V42.1805C92.2163 43.5789 92.7697 44.92 93.7547 45.9089C94.7398 46.8978 96.0758 47.4535 97.469 47.4537C98.2439 47.4545 99.0093 47.2828 99.7102 46.9511C100.411 46.6193 101.03 46.1358 101.522 45.5352C101.572 45.4743 101.62 45.4125 101.668 45.3507L101.703 45.3018C101.737 45.2548 101.771 45.2096 101.804 45.1597C101.836 45.1099 101.858 45.0786 101.884 45.0371C101.9 45.0112 101.917 44.9863 101.933 44.9605C102.07 44.7376 102.191 44.5048 102.293 44.2641L102.342 44.1507C102.593 43.525 102.722 42.8568 102.722 42.1823V16.4922L92.6363 40.1051C92.3812 40.704 92.2388 41.3451 92.2163 41.996Z" fill="#55C4C6"/>
<path d="M12.1163 26.6918C12.9948 26.6918 13.5039 27.2028 13.5039 27.8531C13.5039 28.6418 11.8387 30.6378 11.2837 31.8452C10.8242 32.7731 10.4521 33.7942 10.4521 34.4445C10.4521 34.9056 10.6358 35.4194 11.053 35.4194C12.5794 35.4194 15.169 32.6338 16.8341 30.6378C17.3855 29.9414 17.9901 29.1989 18.4983 29.1989C18.9146 29.1989 19.2335 29.4313 19.2335 29.8953C19.2335 30.4054 19.0028 30.731 18.4478 31.4273C16.2276 34.0727 12.6667 37.5547 10.3087 37.5547C8.78234 37.5547 8.04259 36.4866 8.04259 35.187C8.04259 34.676 8.08853 34.212 8.13448 33.5627C6.80018 34.9084 3.65372 38.0648 1.57231 38.0648C0.971322 38.0648 0 37.2291 0 36.0227C0 31.241 5.36479 26.5996 8.87974 26.5996C9.61949 26.5996 10.3133 27.0608 10.7755 27.6207C10.9143 27.6207 11.4225 26.6918 12.1163 26.6918ZM2.49769 35.187C2.49769 35.4194 2.68147 35.5559 2.91305 35.5559C3.60685 35.5559 9.2951 30.5889 9.2951 29.7071C9.2951 29.1961 8.87974 28.7783 8.27784 28.7783C6.4326 28.7783 2.49769 33.0517 2.49769 35.187Z" fill="white"/>
<path d="M35.4715 29.1988C35.8878 29.1988 36.2113 29.4313 36.2113 29.8952C36.2113 30.4053 35.9806 30.7309 35.4256 31.4273C33.2514 34.1188 29.7373 38.0684 27.1468 38.0684C25.1582 38.0684 24.5572 36.7688 24.5572 35.1906C24.5572 33.891 25.251 32.405 25.251 31.1054C25.251 30.7807 25.0672 30.5519 24.65 30.5519C22.7534 30.5519 18.5915 34.9157 17.8499 37.2364C17.5264 38.2575 16.9245 38.7224 16.3235 38.7224C15.6803 38.7224 15.1675 38.0721 15.1675 37.0971C15.1675 35.1011 18.0814 26.0037 22.2893 19.2722C25.2033 14.5837 28.3479 11.7529 30.5212 11.7529C31.4465 11.7529 32.5566 12.4908 32.5566 13.749C32.5566 15.1879 31.816 18.2511 28.5794 22.1039C25.2951 25.9566 23.1218 26.9777 20.6242 29.1601C20.0232 29.6702 19.3294 31.3876 19.0059 32.3165C21.136 30.0345 24.0013 28.2248 25.7592 28.2248C27.2847 28.2248 27.7938 28.9673 27.7938 30.1747C27.7938 31.6597 27.0999 33.285 27.0999 34.8631C27.0999 35.6038 27.4234 35.9728 27.8443 35.9728C29.5554 35.9728 32.8856 31.8885 33.8101 30.635C34.3605 29.9413 34.9615 29.1988 35.4715 29.1988ZM24.3257 20.1005C21.6433 24.6496 21.136 26.2278 21.136 26.2278C21.136 26.2278 24.05 24.5104 26.8702 21.0293C29.6914 17.4551 30.6167 15.2266 30.6167 14.4804C30.6167 14.1548 30.3852 13.927 30.0158 13.927C28.9038 13.9279 26.499 16.387 24.3257 20.1005Z" fill="white"/>
<path d="M42.1288 28.1777C42.1288 28.5024 42.2676 29.5705 42.7307 29.5705C43.8868 29.5705 44.6725 29.2449 45.505 28.8741C45.9213 28.6896 46.5692 28.2699 46.8467 28.2699C47.398 28.2699 47.7252 28.5024 47.7252 29.1056C47.7252 29.659 47.0314 30.266 45.505 31.0094C44.0255 31.7058 42.1288 31.798 41.6666 31.798C40.6034 34.5366 38.522 38.1117 35.2386 38.1117C33.851 38.1117 32.5103 37.0436 32.5103 34.9544C32.5103 30.5916 36.3946 26.5063 39.4942 26.5063C41.2963 26.5063 42.1288 27.3881 42.1288 28.1777ZM38.9842 29.849C39.0005 29.5322 39.0625 29.2193 39.168 28.9202C37.3172 29.0125 34.7745 32.2159 34.7745 35.0476C34.7745 35.744 35.2827 36.2541 35.7449 36.2541C37.456 36.2541 39.7221 32.1227 39.7221 30.9624C39.4464 30.9162 38.9842 30.3591 38.9842 29.849Z" fill="white"/>
<path d="M54.1065 42.4295C53.182 49.2551 49.2967 59.0001 43.466 59.0001C41.709 59.0001 40.1367 57.7466 40.1367 55.6583C40.1367 53.4759 41.4775 49.577 44.7149 46.0489C47.3973 43.0779 51.0969 41.2212 51.9745 40.8504C52.3421 37.3223 52.853 31.9374 52.853 31.241C51.697 33.0056 47.9055 38.0667 45.4096 38.0667C44.4842 38.0667 43.6526 37.3703 43.6526 36.0245C43.6526 34.7249 45.0861 30.6396 45.6871 29.2469C46.3304 27.6687 47.0279 26.833 47.8604 26.833C48.647 26.833 49.0633 27.2942 49.0633 27.8079C49.0633 28.2258 48.6958 28.7368 48.138 29.6186C47.2135 31.0575 45.9647 34.8171 45.9647 35.2349C45.9647 35.5117 46.0106 35.6961 46.2403 35.6961C47.3504 35.6961 50.5869 31.3324 51.4664 29.9857C52.1592 29.0116 52.853 27.8043 53.0846 27.6189C53.5009 27.2499 54.5182 26.7371 54.9344 26.7371C55.3507 26.7371 55.9058 26.8293 55.9058 27.5727C55.9071 27.8764 55.8445 28.1769 55.722 28.4545C55.3524 29.4365 55.1354 30.4696 55.0787 31.5178C54.6624 37.5058 54.4777 39.1735 54.3849 40.57C54.6439 40.5161 54.9071 40.4853 55.1715 40.4778C57.3908 40.4778 59.7497 41.4988 59.7497 43.6812C59.7497 44.563 59.2902 45.5379 58.2702 45.5379C57.4376 45.5379 57.1133 45.0767 57.1133 44.4237C57.1133 44.0547 57.252 43.7734 57.252 43.2163C57.252 42.7985 56.3735 42.2884 55.1247 42.2884C54.7812 42.2984 54.4398 42.3457 54.1065 42.4295ZM45.8746 47.9998C43.331 50.7835 42.2714 54.1262 42.2714 55.7976C42.2714 56.5862 42.8724 57.2365 43.5662 57.2365C47.7281 57.2365 51.2853 47.8596 51.844 43.0318C50.9619 43.4958 48.2795 45.3064 45.8746 47.9988V47.9998Z" fill="white"/>
<path d="M68.9051 29.1989C69.3214 29.1989 69.6403 29.4313 69.6403 29.8953C69.6403 30.4054 69.4096 30.731 68.8546 31.4274C66.6804 34.0728 62.7032 38.0685 60.0676 38.0685C58.2178 38.0685 56.5986 36.7228 56.5986 34.4943C56.5986 30.5954 59.6973 23.3538 62.2869 18.8978C65.0621 14.1623 67.1435 11.8877 69.779 11.8877C70.8891 11.8877 71.6289 12.8165 71.6289 13.7915C71.6289 15.1372 70.9856 17.9689 67.6517 22.2396C65.0621 25.5352 62.8419 27.4851 60.392 29.4341C59.6523 30.7337 59.0044 33.2869 59.0044 34.2609C59.0044 35.4222 59.5135 36.0716 60.392 36.0716C62.2419 36.0716 65.664 32.7759 67.2363 30.6406C67.795 29.9414 68.396 29.1989 68.9051 29.1989ZM64.0503 19.9152C62.1536 23.304 61.5527 25.1137 61.2751 26.1348C62.2005 25.3969 64.1422 23.4433 66.0389 20.8901C68.4898 17.6406 69.4151 15.5514 69.4151 14.5764C69.4151 14.2997 69.2764 14.1586 68.9557 14.1586C68.396 14.1586 66.3615 15.7838 64.0503 19.9152Z" fill="white"/>
<path d="M79.6347 33.3302C80.051 33.3302 80.3699 33.5627 80.3699 34.0266C80.3699 34.5367 79.8185 35.0938 79.0751 35.7902C77.8262 36.9506 76.3927 37.5547 75.3285 37.5547C73.8031 37.5547 73.0633 36.4866 73.0633 35.187C73.0633 34.676 73.1093 34.212 73.1552 33.5627C71.8145 34.9084 68.6698 38.0648 66.5884 38.0648C65.9874 38.0648 65.0161 37.2291 65.0161 36.0227C65.0161 31.241 70.3809 26.5996 73.895 26.5996C74.6356 26.5996 75.3285 27.0608 75.7917 27.6207C75.9304 27.6207 76.4349 26.6918 77.1324 26.6918C78.0109 26.6918 78.52 27.2028 78.52 27.8531C78.52 28.6418 76.8549 30.6378 76.2998 31.8452C75.8404 32.7731 75.4673 33.7942 75.4673 34.4445C75.4673 34.9056 75.6511 35.4194 76.2079 35.4194C76.6674 35.4194 77.3171 35.0938 78.0109 34.4906C78.6615 33.8873 79.1256 33.3302 79.6347 33.3302ZM67.5175 35.187C67.5175 35.4194 67.7013 35.5559 67.9338 35.5559C68.6276 35.5559 74.3158 30.5889 74.3158 29.7071C74.3158 29.1961 73.8996 28.7783 73.2986 28.7783C71.4487 28.7783 67.5175 33.0517 67.5175 35.187Z" fill="white"/>
</g>
<defs>
<clipPath id="clip0">
<rect width="150" height="59" fill="white"/>
</clipPath>
</defs>
</svg>
